<?xml version="1.0" standalone="no"?>
<!DOCTYPE svg PUBLIC "-//W3C//DTD SVG 20010904//EN"
 "http://www.w3.org/TR/2001/REC-SVG-20010904/DTD/svg10.dtd">
<svg version="1.0" xmlns="http://www.w3.org/2000/svg"
 width="502.000000pt" height="497.000000pt" viewBox="0 0 502.000000 497.000000"
 preserveAspectRatio="xMidYMid meet">
<metadata>
Created by potrace 1.16, written by Peter Selinger 2001-2019
</metadata>
<g transform="translate(0.000000,497.000000) scale(0.100000,-0.100000)"
fill="#000000" stroke="none">
<path d="M1274 3879 c-78 -22 -128 -113 -105 -188 35 -118 181 -155 260 -66
71 81 45 201 -53 246 -45 21 -56 21 -102 8z"/>
<path d="M3625 3880 c-17 -5 -46 -25 -65 -45 -29 -30 -34 -43 -38 -92 -3 -48
0 -64 20 -92 36 -54 70 -73 125 -74 65 -1 115 29 142 87 26 53 26 86 1 135
-33 65 -117 101 -185 81z"/>
<path d="M2458 3733 c-9 -10 -19 -32 -23 -50 -8 -41 -43 -74 -91 -88 -24 -6
-44 -20 -53 -37 -13 -23 -13 -28 2 -52 11 -17 26 -26 43 -26 41 0 82 -36 95
-83 15 -52 36 -77 64 -77 25 0 55 29 55 54 0 48 59 106 108 106 22 0 52 30 52
52 0 26 -33 54 -76 67 -44 12 -68 39 -80 87 -9 39 -32 64 -59 64 -12 0 -29 -8
-37 -17z"/>
<path d="M1938 3309 c-99 -14 -635 -141 -665 -157 -10 -6 -29 -22 -43 -37
l-25 -27 -3 -746 c-2 -495 0 -759 7 -783 6 -19 22 -46 37 -60 l26 -24 489 -3
489 -3 45 -48 c62 -66 117 -91 200 -91 82 0 145 30 202 95 l41 45 478 0 c457
0 480 1 511 20 61 37 58 -4 58 832 l0 767 -29 30 c-15 16 -40 34 -55 39 -62
24 -576 139 -673 152 -180 22 -394 -48 -495 -163 -18 -20 -35 -37 -38 -37 -3
0 -19 15 -36 34 -41 47 -126 102 -201 130 -53 20 -217 49 -253 45 -5 -1 -36
-5 -67 -10z m1162 -115 c41 -8 150 -33 243 -56 l167 -40 0 -674 0 -674 -83 0
c-45 0 -109 7 -141 15 -91 24 -224 45 -281 45 -121 0 -305 -48 -399 -105 l-56
-34 0 675 0 675 53 54 c76 75 163 117 282 134 67 9 106 7 215 -15z m-936 0
c89 -23 170 -70 227 -131 l49 -55 0 -670 0 -670 -32 22 c-179 119 -451 149
-698 79 -41 -12 -97 -19 -152 -19 l-88 0 0 674 0 674 153 36 c280 67 322 74
401 75 43 1 106 -6 140 -15z m-794 -833 c0 -524 3 -712 11 -717 7 -4 65 -6
130 -5 88 2 144 8 216 27 268 68 511 27 690 -115 35 -28 69 -51 76 -51 6 0 44
26 82 57 132 106 236 138 440 137 120 -1 154 -5 240 -29 56 -15 121 -27 148
-26 56 2 73 -5 57 -24 -7 -8 -9 -19 -5 -25 4 -7 -118 -10 -392 -10 l-398 -1
-23 -49 c-17 -36 -35 -57 -66 -75 -84 -49 -175 -22 -226 69 l-32 56 -504 0
-504 0 0 739 c0 802 -4 745 48 750 9 1 12 -147 12 -708z m2308 359 c2 -299 1
-335 -14 -352 -43 -46 -44 -38 -44 341 l0 359 28 -7 27 -7 3 -334z m-22 -480
l24 -13 0 -254 c0 -182 -3 -253 -11 -253 -7 0 -20 -10 -30 -22 -19 -21 -19
-16 -19 247 0 233 2 266 15 261 19 -7 19 3 0 28 -8 11 -14 31 -14 45 l2 26 4
-26 c2 -15 15 -32 29 -39z"/>
<path d="M2152 1974 c3 -37 6 -40 48 -53 25 -7 59 -20 76 -28 46 -21 79 -14
79 17 0 17 -5 25 -17 24 -10 -1 -16 3 -15 9 1 6 -11 15 -28 20 -16 6 -43 16
-60 23 -16 7 -43 16 -58 19 -28 7 -28 7 -25 -31z"/>
</g>
</svg>
